<?xml version="1.0" encoding="UTF-8"?>
<!DOCTYPE svg PUBLIC "-//W3C//DTD SVG 1.1//EN" "http://www.w3.org/Graphics/SVG/1.1/DTD/svg11.dtd">
<svg xmlns="http://www.w3.org/2000/svg" version="1.1" width="1024px" height="1024px" style="shape-rendering:geometricPrecision; text-rendering:geometricPrecision; image-rendering:optimizeQuality; fill-rule:evenodd; clip-rule:evenodd" xmlns:xlink="http://www.w3.org/1999/xlink">
<g><path style="opacity:1" fill="#5271fe" d="M -0.5,-0.5 C 340.833,-0.5 682.167,-0.5 1023.5,-0.5C 1023.5,340.833 1023.5,682.167 1023.5,1023.5C 682.167,1023.5 340.833,1023.5 -0.5,1023.5C -0.5,682.167 -0.5,340.833 -0.5,-0.5 Z"/></g>
<g><path style="opacity:1" fill="#f7da9e" d="M 619.5,231.5 C 618.957,231.56 618.624,231.893 618.5,232.5C 621.98,233.806 625.313,233.806 628.5,232.5C 646.514,230.266 664.514,228.099 682.5,226C 677.833,231.333 673.167,236.667 668.5,242C 679.269,238.965 689.936,235.298 700.5,231C 701.944,230.219 703.277,230.386 704.5,231.5C 709.171,239.512 714.338,247.179 720,254.5C 756.238,286.138 782.405,324.638 798.5,370C 778.365,383.239 758.032,396.239 737.5,409C 755.071,405.026 772.738,401.193 790.5,397.5C 792.37,403.777 794.037,410.11 795.5,416.5C 800.773,415.182 806.107,414.182 811.5,413.5C 815.363,432.327 818.03,451.327 819.5,470.5C 820.878,476.482 818.878,480.815 813.5,483.5C 765.439,479.003 718.439,484.003 672.5,498.5C 652.532,498.53 632.866,500.863 613.5,505.5C 623.178,496.46 631.678,486.46 639,475.5C 644.952,465.994 648.785,455.994 650.5,445.5C 657.97,431.563 658.304,417.563 651.5,403.5C 652.629,401.372 652.796,399.039 652,396.5C 650.399,390.363 648.399,384.363 646,378.5C 632.046,350.926 618.379,323.259 605,295.5C 590.734,256.293 593.401,218.293 613,181.5C 619,172.833 625,164.167 631,155.5C 643.104,123.082 636.271,95.2483 610.5,72C 594.084,60.0463 575.75,55.713 555.5,59C 535.914,61.1469 516.914,65.6469 498.5,72.5C 538.089,40.9674 583.423,25.3007 634.5,25.5C 647.907,25.8073 661.24,26.974 674.5,29C 680.789,30.2265 686.955,31.7265 693,33.5C 689.964,47.6871 687.297,62.0204 685,76.5C 679.036,117.907 680.703,158.907 690,199.5C 666.53,210.266 643.03,220.933 619.5,231.5 Z"/></g>
<g><path style="opacity:1" fill="#fde6a8" d="M 651.5,403.5 C 637.107,384.08 617.773,375.58 593.5,378C 586.943,380.015 582.443,384.182 580,390.5C 578.98,404.491 577.98,418.491 577,432.5C 574.402,441.437 568.569,444.937 559.5,443C 548.616,437.037 537.283,432.037 525.5,428C 507.793,424.076 491.459,427.076 476.5,437C 470.947,441.618 469.114,447.451 471,454.5C 472.676,458.695 473.843,463.029 474.5,467.5C 474.885,470.371 473.885,472.537 471.5,474C 466.833,474.333 462.167,474.667 457.5,475C 455.91,476.046 454.41,477.213 453,478.5C 451.539,483.718 450.539,489.052 450,494.5C 447.453,501.712 442.786,507.046 436,510.5C 433.571,517.615 434.571,524.282 439,530.5C 443.983,537.819 450.483,543.319 458.5,547C 465.018,549.385 470.518,547.885 475,542.5C 481.678,523.484 494.845,511.984 514.5,508C 536.569,506.108 558.569,503.775 580.5,501C 612.015,492.635 635.348,474.135 650.5,445.5C 648.785,455.994 644.952,465.994 639,475.5C 631.678,486.46 623.178,496.46 613.5,505.5C 612.609,506.11 611.609,506.443 610.5,506.5C 565.736,519.661 536.736,548.661 523.5,593.5C 522.129,599.254 520.795,604.92 519.5,610.5C 486.883,598.333 453.55,596.166 419.5,604C 388.358,611.491 358.358,622.158 329.5,636C 311.288,645.271 293.288,654.771 275.5,664.5C 246.309,678.262 216.975,691.762 187.5,705C 168.739,707.901 156.239,700.401 150,682.5C 146.164,655.809 142.164,629.142 138,602.5C 135.323,589.023 139.489,578.19 150.5,570C 172.337,556.249 194.003,542.249 215.5,528C 186.211,532.656 156.877,536.989 127.5,541C 125.333,540.167 123.833,538.667 123,536.5C 122.333,524.5 122.333,512.5 123,500.5C 150.775,470.724 179.275,441.557 208.5,413C 179.427,419.017 150.427,425.683 121.5,433C 114.645,434.323 109.811,431.823 107,425.5C 105.774,419.816 104.441,414.149 103,408.5C 102.163,404.705 102.496,401.039 104,397.5C 124.887,378.978 146.054,360.812 167.5,343C 144.167,342.667 120.833,342.333 97.5,342C 85.5366,339.266 75.7032,333.1 68,323.5C 55,308.5 42,293.5 29,278.5C 26.8943,275.882 24.3943,273.882 21.5,272.5C 19.6454,269.804 17.9787,266.971 16.5,264C 21.9785,246.861 32.3119,233.527 47.5,224C 60.3154,216.093 73.9821,210.093 88.5,206C 105.026,201.69 121.693,198.023 138.5,195C 175.403,189.792 212.403,185.792 249.5,183C 255.462,195.759 261.295,208.592 267,221.5C 268.167,214.833 269.333,208.167 270.5,201.5C 281.854,211.355 293.354,221.021 305,230.5C 305.667,228.167 305.667,225.833 305,223.5C 301.654,207.907 298.821,192.24 296.5,176.5C 338.989,171.878 379.656,160.712 418.5,143C 439.737,131.431 457.57,115.931 472,96.5C 480.106,87.5537 488.94,79.5537 498.5,72.5C 516.914,65.6469 535.914,61.1469 555.5,59C 575.75,55.713 594.084,60.0463 610.5,72C 636.271,95.2483 643.104,123.082 631,155.5C 625,164.167 619,172.833 613,181.5C 593.401,218.293 590.734,256.293 605,295.5C 618.379,323.259 632.046,350.926 646,378.5C 648.399,384.363 650.399,390.363 652,396.5C 652.796,399.039 652.629,401.372 651.5,403.5 Z"/></g>
<g><path style="opacity:1" fill="#efb070" d="M 550.5,353.5 C 549.192,343.505 543.525,339.339 533.5,341C 527.458,344.748 525.958,349.915 529,356.5C 530.812,358.3 532.645,359.967 534.5,361.5C 521.304,365.562 507.804,366.562 494,364.5C 488.027,364.412 482.194,365.246 476.5,367C 471.228,369.941 466.228,373.274 461.5,377C 457.167,382.667 452.833,388.333 448.5,394C 440.541,399.051 431.874,400.718 422.5,399C 409.277,393.069 395.443,389.902 381,389.5C 374.682,389.261 368.515,390.094 362.5,392C 352.49,396.006 342.49,400.006 332.5,404C 325.842,404.5 319.175,404.666 312.5,404.5C 315.118,400.709 317.951,397.043 321,393.5C 324.183,386.038 322.017,380.871 314.5,378C 309.753,377.138 305.92,378.638 303,382.5C 300.089,385.99 297.422,389.656 295,393.5C 294.503,395.81 294.337,398.143 294.5,400.5C 284.907,396.37 275.907,391.203 267.5,385C 252.352,373.666 237.852,361.499 224,348.5C 219.139,343.614 215.973,337.78 214.5,331C 215.422,325.193 218.756,321.526 224.5,320C 238.833,316.667 253.167,316.667 267.5,320C 290.377,334.217 313.044,333.884 335.5,319C 344.586,312.585 353.086,305.418 361,297.5C 364.385,293.783 367.385,289.783 370,285.5C 383.132,248.7 408.632,225.534 446.5,216C 461.731,212.856 476.064,215.189 489.5,223C 497.638,229.126 506.304,234.46 515.5,239C 528.742,243.741 542.408,245.741 556.5,245C 567.815,248.313 575.648,255.48 580,266.5C 591.575,302.945 581.741,331.945 550.5,353.5 Z"/></g>
<g><path style="opacity:1" fill="#bbb2c2" d="M 619.5,231.5 C 622.287,232.477 625.287,232.81 628.5,232.5C 625.313,233.806 621.98,233.806 618.5,232.5C 618.624,231.893 618.957,231.56 619.5,231.5 Z"/></g>
<g><path style="opacity:1" fill="#b31725" d="M 439.5,310.5 C 446.472,311.491 453.139,313.491 459.5,316.5C 464.148,321.06 464.648,326.06 461,331.5C 458.517,333.491 455.684,334.491 452.5,334.5C 446.389,333.686 440.723,331.686 435.5,328.5C 432.72,324.95 431.886,320.95 433,316.5C 434.494,313.686 436.66,311.686 439.5,310.5 Z"/></g>
<g><path style="opacity:1" fill="#b31926" d="M 502.5,313.5 C 505.794,313.259 508.794,314.092 511.5,316C 514.333,318.833 517.167,321.667 520,324.5C 521.495,334.333 517.328,339.166 507.5,339C 499.699,335.564 495.532,329.731 495,321.5C 496.387,317.678 498.887,315.011 502.5,313.5 Z"/></g>
<g><path style="opacity:1" fill="#b31725" d="M 392.5,319.5 C 403.749,317.68 408.916,322.347 408,333.5C 406.833,336 405,337.833 402.5,339C 396.253,340.816 389.92,341.816 383.5,342C 375.516,337.108 374.516,331.108 380.5,324C 384.496,322.18 388.496,320.68 392.5,319.5 Z"/></g>
<g><path style="opacity:1" fill="#b31826" d="M 349.5,339.5 C 359.368,339.198 363.868,343.865 363,353.5C 360.254,358.319 356.087,361.153 350.5,362C 343.303,369.77 336.803,369.27 331,360.5C 330.333,358.167 330.333,355.833 331,353.5C 335.526,346.505 341.693,341.839 349.5,339.5 Z"/></g>
<g><path style="opacity:1" fill="#b41a26" d="M 550.5,353.5 C 547.659,360.921 542.326,363.587 534.5,361.5C 532.645,359.967 530.812,358.3 529,356.5C 525.958,349.915 527.458,344.748 533.5,341C 543.525,339.339 549.192,343.505 550.5,353.5 Z"/></g>
<g><path style="opacity:1" fill="#b41b27" d="M 557.5,360.5 C 560.32,360.248 562.986,360.748 565.5,362C 569.659,365.159 573.492,368.659 577,372.5C 579.618,377.946 578.451,382.446 573.5,386C 570.634,387.457 567.634,387.79 564.5,387C 560.049,384.217 555.883,381.05 552,377.5C 548.646,370.031 550.48,364.364 557.5,360.5 Z"/></g>
<g><path style="opacity:1" fill="#efb070" d="M 651.5,403.5 C 658.304,417.563 657.97,431.563 650.5,445.5C 635.348,474.135 612.015,492.635 580.5,501C 558.569,503.775 536.569,506.108 514.5,508C 494.845,511.984 481.678,523.484 475,542.5C 470.518,547.885 465.018,549.385 458.5,547C 450.483,543.319 443.983,537.819 439,530.5C 434.571,524.282 433.571,517.615 436,510.5C 442.786,507.046 447.453,501.712 450,494.5C 450.539,489.052 451.539,483.718 453,478.5C 454.41,477.213 455.91,476.046 457.5,475C 462.167,474.667 466.833,474.333 471.5,474C 473.885,472.537 474.885,470.371 474.5,467.5C 473.843,463.029 472.676,458.695 471,454.5C 469.114,447.451 470.947,441.618 476.5,437C 491.459,427.076 507.793,424.076 525.5,428C 537.283,432.037 548.616,437.037 559.5,443C 568.569,444.937 574.402,441.437 577,432.5C 577.98,418.491 578.98,404.491 580,390.5C 582.443,384.182 586.943,380.015 593.5,378C 617.773,375.58 637.107,384.08 651.5,403.5 Z"/></g>
<g><path style="opacity:1" fill="#b31926" d="M 312.5,404.5 C 304.808,410.695 298.808,409.362 294.5,400.5C 294.337,398.143 294.503,395.81 295,393.5C 297.422,389.656 300.089,385.99 303,382.5C 305.92,378.638 309.753,377.138 314.5,378C 322.017,380.871 324.183,386.038 321,393.5C 317.951,397.043 315.118,400.709 312.5,404.5 Z"/></g>
<g><path style="opacity:1" fill="#b31725" d="M 588.5,401.5 C 596.661,400.165 601.828,403.499 604,411.5C 609.749,425.727 605.249,431.56 590.5,429C 584.417,422.673 581.917,415.173 583,406.5C 584.73,404.598 586.563,402.931 588.5,401.5 Z"/></g>
<g><path style="opacity:1" fill="#b31826" d="M 297.5,453.5 C 294.57,454.299 291.57,454.632 288.5,454.5C 285.685,453.676 283.518,452.009 282,449.5C 281.333,443.167 281.333,436.833 282,430.5C 285.73,422.198 291.564,420.365 299.5,425C 300.211,426.255 301.044,427.421 302,428.5C 302.266,434.846 301.933,441.179 301,447.5C 300.436,449.887 299.27,451.887 297.5,453.5 Z"/></g>
<g><path style="opacity:1" fill="#efaf70" d="M 288.5,454.5 C 291.57,454.632 294.57,454.299 297.5,453.5C 305.326,449.421 313.326,445.588 321.5,442C 348.41,435.371 367.91,444.538 380,469.5C 382.934,477.077 381.434,483.577 375.5,489C 366.236,491.232 357.236,494.232 348.5,498C 339.172,503.661 332.339,511.494 328,521.5C 325.593,529.721 322.593,537.721 319,545.5C 315.395,549.721 310.895,552.554 305.5,554C 284.614,556.491 266.781,550.325 252,535.5C 242.404,522.124 242.071,508.457 251,494.5C 262.672,478.823 276.839,465.99 293.5,456C 291.618,455.802 289.952,455.302 288.5,454.5 Z"/></g>
<g><path style="opacity:1" fill="#b31725" d="M 600.5,444.5 C 612.652,444.832 616.818,450.832 613,462.5C 609.865,468.989 605.032,470.823 598.5,468C 590.083,459.416 590.749,451.583 600.5,444.5 Z"/></g>
<g><path style="opacity:1" fill="#b31525" d="M 302.5,474.5 C 313.042,473.539 317.542,478.206 316,488.5C 313.417,492.087 311.25,495.92 309.5,500C 313.721,502.362 317.887,504.862 322,507.5C 325.396,519.441 320.896,524.608 308.5,523C 306.541,522.069 304.541,521.236 302.5,520.5C 301.126,526.132 299.626,531.798 298,537.5C 290.767,543.658 284.767,542.658 280,534.5C 279.653,526.561 280.486,518.728 282.5,511C 279.084,508.526 275.917,505.693 273,502.5C 269.871,495.589 271.704,490.422 278.5,487C 282.982,485.989 286.816,487.156 290,490.5C 292.667,486.5 295.333,482.5 298,478.5C 299.397,476.93 300.897,475.596 302.5,474.5 Z"/></g>
<g><path style="opacity:1" fill="#f2f4f8" d="M 813.5,483.5 C 833.237,488.416 851.904,496.083 869.5,506.5C 900.948,529.66 921.781,560.327 932,598.5C 957.641,694.931 936.975,779.931 870,853.5C 849.707,872.981 827.874,890.314 804.5,905.5C 784.773,916.531 764.44,926.198 743.5,934.5C 714.745,944.848 685.078,949.348 654.5,948C 616.483,943.743 584.983,927.243 560,898.5C 534.219,867.226 517.219,831.56 509,791.5C 503.345,765.124 500.178,738.458 499.5,711.5C 499.07,682.887 505.404,655.887 518.5,630.5C 521.933,625.147 525.267,619.647 528.5,614C 527.944,613.617 527.611,613.117 527.5,612.5C 529.017,612.489 530.184,611.823 531,610.5C 536.423,602.655 542.089,594.989 548,587.5C 566.898,568.599 586.398,550.433 606.5,533C 626.789,518.207 648.789,506.707 672.5,498.5C 718.439,484.003 765.439,479.003 813.5,483.5 Z"/></g>
<g><path style="opacity:1" fill="#f5e7ca" d="M 672.5,498.5 C 648.789,506.707 626.789,518.207 606.5,533C 586.398,550.433 566.898,568.599 548,587.5C 542.089,594.989 536.423,602.655 531,610.5C 530.184,611.823 529.017,612.489 527.5,612.5C 524.873,611.908 522.206,611.575 519.5,611.5C 519.5,611.167 519.5,610.833 519.5,610.5C 520.795,604.92 522.129,599.254 523.5,593.5C 525.01,592.164 526.677,590.997 528.5,590C 555.054,562.113 582.221,534.946 610,508.5C 610.464,507.906 610.631,507.239 610.5,506.5C 611.609,506.443 612.609,506.11 613.5,505.5C 632.866,500.863 652.532,498.53 672.5,498.5 Z"/></g>
<g><path style="opacity:1" fill="#f8edce" d="M 610.5,506.5 C 610.631,507.239 610.464,507.906 610,508.5C 582.221,534.946 555.054,562.113 528.5,590C 526.677,590.997 525.01,592.164 523.5,593.5C 536.736,548.661 565.736,519.661 610.5,506.5 Z"/></g>
<g><path style="opacity:1" fill="#d7d8d9" d="M 869.5,506.5 C 906.51,524.361 931.343,553.028 944,592.5C 960.141,647.129 959.308,701.463 941.5,755.5C 915.382,823.288 869.715,873.288 804.5,905.5C 827.874,890.314 849.707,872.981 870,853.5C 936.975,779.931 957.641,694.931 932,598.5C 921.781,560.327 900.948,529.66 869.5,506.5 Z"/></g>
<g><path style="opacity:1" fill="#ecc288" d="M 21.5,272.5 C 24.3943,273.882 26.8943,275.882 29,278.5C 42,293.5 55,308.5 68,323.5C 75.7032,333.1 85.5366,339.266 97.5,342C 120.833,342.333 144.167,342.667 167.5,343C 146.054,360.812 124.887,378.978 104,397.5C 102.496,401.039 102.163,404.705 103,408.5C 104.441,414.149 105.774,419.816 107,425.5C 109.811,431.823 114.645,434.323 121.5,433C 150.427,425.683 179.427,419.017 208.5,413C 179.275,441.557 150.775,470.724 123,500.5C 122.333,512.5 122.333,524.5 123,536.5C 123.833,538.667 125.333,540.167 127.5,541C 156.877,536.989 186.211,532.656 215.5,528C 194.003,542.249 172.337,556.249 150.5,570C 139.489,578.19 135.323,589.023 138,602.5C 142.164,629.142 146.164,655.809 150,682.5C 156.239,700.401 168.739,707.901 187.5,705C 216.975,691.762 246.309,678.262 275.5,664.5C 232.821,690.513 191.821,719.013 152.5,750C 151.833,750.667 151.167,750.667 150.5,750C 126.248,696.079 113.248,639.579 111.5,580.5C 139.623,566.938 167.623,553.105 195.5,539C 166.817,546.506 138.151,554.339 109.5,562.5C 107.27,542.562 106.103,522.562 106,502.5C 131.833,478 157.667,453.5 183.5,429C 156.099,438.303 128.765,448.137 101.5,458.5C 97.9424,445.224 94.4424,431.891 91,418.5C 87.8889,408.498 84.3889,398.665 80.5,389C 100.667,376.415 121,364.082 141.5,352C 119.569,358.362 97.5687,364.862 75.5,371.5C 74.8333,371.167 74.1667,370.833 73.5,370.5C 58.7303,336.285 41.397,303.618 21.5,272.5 Z"/></g>
<g><path style="opacity:1" fill="#fe914d" d="M 702.5,581.5 C 762.256,577.29 807.422,600.624 838,651.5C 859.738,695.455 859.738,739.455 838,783.5C 808.111,834.199 763.611,857.699 704.5,854C 647.878,844.039 610.378,811.873 592,757.5C 577.588,700.505 591.755,652.005 634.5,612C 654.396,595.55 677.063,585.383 702.5,581.5 Z"/></g>
<g><path style="opacity:1" fill="#9faffb" d="M 519.5,611.5 C 522.206,611.575 524.873,611.908 527.5,612.5C 527.611,613.117 527.944,613.617 528.5,614C 525.267,619.647 521.933,625.147 518.5,630.5C 518.476,624.143 518.81,617.81 519.5,611.5 Z"/></g>
<g><path style="opacity:1" fill="#ffbc58" d="M 757.5,613.5 C 797.522,611.568 822.355,629.901 832,668.5C 834.442,709.045 815.942,733.878 776.5,743C 748.154,745.742 726.32,735.242 711,711.5C 694.503,676.662 701.337,647.495 731.5,624C 739.611,618.804 748.277,615.304 757.5,613.5 Z"/></g>
<g><path style="opacity:1" fill="#99a7eb" d="M 941.5,755.5 C 959.522,841.652 926.855,898.152 843.5,925C 810.686,933.266 777.353,936.433 743.5,934.5C 764.44,926.198 784.773,916.531 804.5,905.5C 869.715,873.288 915.382,823.288 941.5,755.5 Z"/></g>
</svg>
