<?xml version="1.0" encoding="UTF-8"?>
<!DOCTYPE svg PUBLIC "-//W3C//DTD SVG 1.1//EN" "http://www.w3.org/Graphics/SVG/1.1/DTD/svg11.dtd">
<svg xmlns="http://www.w3.org/2000/svg" version="1.1" width="1024px" height="1024px" style="shape-rendering:geometricPrecision; text-rendering:geometricPrecision; image-rendering:optimizeQuality; fill-rule:evenodd; clip-rule:evenodd" xmlns:xlink="http://www.w3.org/1999/xlink">
<g><path style="opacity:1" fill="#5271fe" d="M -0.5,-0.5 C 340.833,-0.5 682.167,-0.5 1023.5,-0.5C 1023.5,340.833 1023.5,682.167 1023.5,1023.5C 682.167,1023.5 340.833,1023.5 -0.5,1023.5C -0.5,682.167 -0.5,340.833 -0.5,-0.5 Z"/></g>
<g><path style="opacity:1" fill="#f7da9e" d="M 650.5,393.5 C 649.711,393.783 649.044,394.283 648.5,395C 651.039,395.796 653.372,395.629 655.5,394.5C 667.795,392.814 680.128,391.648 692.5,391C 690.372,394.13 687.872,396.963 685,399.5C 684.312,400.332 684.479,400.998 685.5,401.5C 692.128,398.902 698.795,396.402 705.5,394C 706.944,393.219 708.277,393.386 709.5,394.5C 718.273,408.785 729.106,421.451 742,432.5C 756.245,450.313 767.412,469.98 775.5,491.5C 762.805,499.511 750.139,507.511 737.5,515.5C 728.619,511.446 719.285,508.946 709.5,508C 696.812,507.269 684.145,507.435 671.5,508.5C 670.978,505.432 670.145,502.432 669,499.5C 659.333,480.167 649.667,460.833 640,441.5C 626.215,403.98 632.215,369.98 658,339.5C 665.787,317.147 660.953,297.98 643.5,282C 632.51,273.835 620.176,270.502 606.5,272C 591.657,273.795 577.324,277.295 563.5,282.5C 576.852,271.365 591.852,262.865 608.5,257C 639.173,248.319 670.173,247.153 701.5,253.5C 696.253,274.299 693.253,295.466 692.5,317C 692.121,335.226 694.454,353.059 699.5,370.5C 683.292,378.437 666.958,386.104 650.5,393.5 Z"/></g>
<g><path style="opacity:1" fill="#fde6a8" d="M 671.5,508.5 C 669.708,508.366 668.042,508.699 666.5,509.5C 656.973,499.711 645.306,495.544 631.5,497C 626.026,498.474 622.526,501.974 621,507.5C 620.502,510.817 620.335,514.15 620.5,517.5C 602.782,517.745 586.448,522.411 571.5,531.5C 571.167,531.5 570.833,531.5 570.5,531.5C 562.89,531.759 555.89,533.926 549.5,538C 544.05,543.109 543.05,548.942 546.5,555.5C 545.341,559.151 543.674,562.485 541.5,565.5C 537.713,564.814 534.546,565.814 532,568.5C 531.17,573.642 529.837,578.642 528,583.5C 524.914,586.517 521.914,589.517 519,592.5C 519.282,600.614 522.782,606.948 529.5,611.5C 525.013,625.125 523.346,639.125 524.5,653.5C 522.901,653.232 521.568,653.566 520.5,654.5C 502.373,657.495 484.707,662.328 467.5,669C 446.38,678.394 425.714,688.56 405.5,699.5C 385.855,708.655 366.188,717.822 346.5,727C 332.98,729.491 323.813,724.324 319,711.5C 316.541,692.413 313.541,673.413 310,654.5C 308.873,645.222 312.039,637.722 319.5,632C 330.242,625.64 340.575,618.807 350.5,611.5C 355.277,608.94 359.944,606.107 364.5,603C 363.667,602.833 362.833,602.667 362,602.5C 342.291,606.696 322.458,609.863 302.5,612C 301.299,611.097 300.465,609.931 300,608.5C 299.333,600.167 299.333,591.833 300,583.5C 319.833,563 339.667,542.5 359.5,522C 338.539,526.61 317.539,531.443 296.5,536.5C 294.143,535.905 291.977,534.905 290,533.5C 286.22,526.093 285.22,518.426 287,510.5C 301.5,498 316,485.5 330.5,473C 314.5,472.667 298.5,472.333 282.5,472C 273.457,469.635 265.957,464.801 260,457.5C 249.934,445.31 239.434,433.643 228.5,422.5C 224.718,418.109 224.551,413.442 228,408.5C 233.167,399.333 240.333,392.167 249.5,387C 269.48,377.401 290.48,371.067 312.5,368C 337.336,365.166 362.169,362.333 387,359.5C 387.833,359.833 388.667,360.167 389.5,360.5C 393.43,369.125 397.264,377.792 401,386.5C 401.797,381.825 402.63,377.159 403.5,372.5C 411.519,379.687 419.686,386.687 428,393.5C 426.675,381.238 424.508,369.071 421.5,357C 421.645,356.228 421.978,355.561 422.5,355C 454.053,351.613 484.053,342.946 512.5,329C 524.859,322.31 535.026,313.143 543,301.5C 549.403,294.593 556.236,288.26 563.5,282.5C 577.324,277.295 591.657,273.795 606.5,272C 620.176,270.502 632.51,273.835 643.5,282C 660.953,297.98 665.787,317.147 658,339.5C 632.215,369.98 626.215,403.98 640,441.5C 649.667,460.833 659.333,480.167 669,499.5C 670.145,502.432 670.978,505.432 671.5,508.5 Z"/></g>
<g><path style="opacity:1" fill="#efaf70" d="M 600.5,479.5 C 599.452,472.631 595.452,469.797 588.5,471C 583.068,476.239 583.401,481.072 589.5,485.5C 580.591,488.836 571.425,489.503 562,487.5C 552.988,487.17 545.154,490.003 538.5,496C 535.2,501.266 531.2,505.932 526.5,510C 521.375,512.246 516.042,512.913 510.5,512C 501.015,508.004 491.182,505.504 481,504.5C 477.43,504.544 473.93,505.044 470.5,506C 463.167,509 455.833,512 448.5,515C 443.22,516.095 437.887,516.595 432.5,516.5C 435.791,512.714 438.458,508.547 440.5,504C 437.939,496.701 433.606,495.201 427.5,499.5C 423.753,503.203 421.419,507.536 420.5,512.5C 414.122,510.143 408.122,506.977 402.5,503C 393.833,496 385.167,489 376.5,482C 370.728,477.106 366.728,471.106 364.5,464C 364.625,462.373 365.125,460.873 366,459.5C 371.674,455.387 378.007,453.721 385,454.5C 390.213,454.546 395.38,455.046 400.5,456C 420.141,467.436 438.474,465.769 455.5,451C 460.634,446.867 465.468,442.367 470,437.5C 474.907,428.688 479.573,419.688 484,410.5C 497.789,393.773 515.456,384.439 537,382.5C 543.067,382.475 548.9,383.641 554.5,386C 561.667,391.42 569.333,396.087 577.5,400C 586.936,402.78 596.603,404.113 606.5,404C 616.262,408.32 622.096,415.82 624,426.5C 628.028,449.628 620.195,467.295 600.5,479.5 Z"/></g>
<g><path style="opacity:1" fill="#8f97dc" d="M 650.5,393.5 C 651.919,394.451 653.585,394.784 655.5,394.5C 653.372,395.629 651.039,395.796 648.5,395C 649.044,394.283 649.711,393.783 650.5,393.5 Z"/></g>
<g><path style="opacity:1" fill="#ebc288" d="M 228.5,422.5 C 239.434,433.643 249.934,445.31 260,457.5C 265.957,464.801 273.457,469.635 282.5,472C 298.5,472.333 314.5,472.667 330.5,473C 316,485.5 301.5,498 287,510.5C 285.22,518.426 286.22,526.093 290,533.5C 291.977,534.905 294.143,535.905 296.5,536.5C 317.539,531.443 338.539,526.61 359.5,522C 339.667,542.5 319.833,563 300,583.5C 299.333,591.833 299.333,600.167 300,608.5C 300.465,609.931 301.299,611.097 302.5,612C 322.458,609.863 342.291,606.696 362,602.5C 362.833,602.667 363.667,602.833 364.5,603C 359.944,606.107 355.277,608.94 350.5,611.5C 350.265,610.903 349.765,610.57 349,610.5C 329.58,615.974 310.247,621.641 291,627.5C 288.904,613.237 287.904,598.904 288,584.5C 306.5,567.333 325,550.167 343.5,533C 323.624,539.904 303.624,546.737 283.5,553.5C 280.967,536.868 276.633,520.701 270.5,505C 283.638,495.925 297.304,487.592 311.5,480C 296.167,484 280.833,488 265.5,492C 254.569,467.965 242.236,444.799 228.5,422.5 Z"/></g>
<g><path style="opacity:1" fill="#b41926" d="M 522.5,449.5 C 528.822,449.993 534.322,452.327 539,456.5C 540.199,462.301 537.866,465.635 532,466.5C 527.985,465.94 524.152,464.773 520.5,463C 516.034,457.636 516.7,453.136 522.5,449.5 Z"/></g>
<g><path style="opacity:1" fill="#b41a26" d="M 567.5,451.5 C 571.581,452.4 575.081,454.4 578,457.5C 581.325,466.681 578.158,470.515 568.5,469C 566.667,467.167 564.833,465.333 563,463.5C 560.385,457.951 561.885,453.951 567.5,451.5 Z"/></g>
<g><path style="opacity:1" fill="#b41a26" d="M 490.5,455.5 C 500.694,456.158 503.028,460.658 497.5,469C 492.887,470.664 488.221,471.664 483.5,472C 477.347,467.748 477.014,463.081 482.5,458C 485.379,457.454 488.046,456.621 490.5,455.5 Z"/></g>
<g><path style="opacity:1" fill="#b41b26" d="M 457.5,470.5 C 465.123,468.975 468.957,471.975 469,479.5C 467.094,483.446 463.928,485.613 459.5,486C 454.347,491.025 449.847,490.525 446,484.5C 445.543,479.92 447.376,476.42 451.5,474C 453.432,472.541 455.432,471.375 457.5,470.5 Z"/></g>
<g><path style="opacity:1" fill="#b51f28" d="M 600.5,479.5 C 598.974,485.429 595.308,487.429 589.5,485.5C 583.401,481.072 583.068,476.239 588.5,471C 595.452,469.797 599.452,472.631 600.5,479.5 Z"/></g>
<g><path style="opacity:1" fill="#b41b27" d="M 604.5,485.5 C 610.473,485.271 615.307,487.604 619,492.5C 621.477,496.78 620.644,500.28 616.5,503C 610.498,503.755 605.665,501.588 602,496.5C 599.6,491.99 600.433,488.323 604.5,485.5 Z"/></g>
<g><path style="opacity:1" fill="#f0b070" d="M 666.5,509.5 C 655.63,510.481 644.964,512.481 634.5,515.5C 630.886,512.687 627.552,513.021 624.5,516.5C 623.292,517.234 621.959,517.567 620.5,517.5C 620.335,514.15 620.502,510.817 621,507.5C 622.526,501.974 626.026,498.474 631.5,497C 645.306,495.544 656.973,499.711 666.5,509.5 Z"/></g>
<g><path style="opacity:1" fill="#b41b27" d="M 432.5,516.5 C 426.824,520.035 422.824,518.702 420.5,512.5C 421.419,507.536 423.753,503.203 427.5,499.5C 433.606,495.201 437.939,496.701 440.5,504C 438.458,508.547 435.791,512.714 432.5,516.5 Z"/></g>
<g><path style="opacity:1" fill="#f2f4f8" d="M 737.5,515.5 C 738.78,516.931 740.447,517.598 742.5,517.5C 745.304,519.405 748.304,521.071 751.5,522.5C 772.197,539.273 785.197,560.939 790.5,587.5C 802.635,649.259 785.635,701.426 739.5,744C 732.267,750.078 724.934,755.911 717.5,761.5C 703.36,769.903 688.693,777.237 673.5,783.5C 611.956,804.833 567.456,786.166 540,727.5C 530.805,704.027 525.639,679.694 524.5,654.5C 523.167,654.5 521.833,654.5 520.5,654.5C 521.568,653.566 522.901,653.232 524.5,653.5C 523.346,639.125 525.013,625.125 529.5,611.5C 532.012,607.134 534.012,602.467 535.5,597.5C 550.633,573.696 569.633,553.362 592.5,536.5C 603.466,528.851 615.133,522.517 627.5,517.5C 629.965,517.233 632.299,516.566 634.5,515.5C 644.964,512.481 655.63,510.481 666.5,509.5C 668.042,508.699 669.708,508.366 671.5,508.5C 684.145,507.435 696.812,507.269 709.5,508C 719.285,508.946 728.619,511.446 737.5,515.5 Z"/></g>
<g><path style="opacity:1" fill="#f3d8a1" d="M 789.5,560.5 C 780.528,544.194 767.861,531.528 751.5,522.5C 748.304,521.071 745.304,519.405 742.5,517.5C 750.114,515.137 757.948,513.137 766,511.5C 767.436,511.559 768.769,511.892 770,512.5C 771.027,516.608 772.36,520.608 774,524.5C 777.321,523.029 780.821,522.363 784.5,522.5C 787.468,534.979 789.135,547.646 789.5,560.5 Z"/></g>
<g><path style="opacity:1" fill="#b82730" d="M 634.5,515.5 C 632.299,516.566 629.965,517.233 627.5,517.5C 626.209,517.737 625.209,517.404 624.5,516.5C 627.552,513.021 630.886,512.687 634.5,515.5 Z"/></g>
<g><path style="opacity:1" fill="#f8ebcc" d="M 624.5,516.5 C 625.209,517.404 626.209,517.737 627.5,517.5C 615.133,522.517 603.466,528.851 592.5,536.5C 586.175,532.603 579.175,530.936 571.5,531.5C 586.448,522.411 602.782,517.745 620.5,517.5C 621.959,517.567 623.292,517.234 624.5,516.5 Z"/></g>
<g><path style="opacity:1" fill="#b41b27" d="M 422.5,550.5 C 421.508,550.328 420.842,550.662 420.5,551.5C 416.685,552.171 413.851,550.838 412,547.5C 411.333,542.833 411.333,538.167 412,533.5C 414.226,529.139 417.726,527.639 422.5,529C 424.049,530.214 425.215,531.714 426,533.5C 426.757,539.641 425.591,545.307 422.5,550.5 Z"/></g>
<g><path style="opacity:1" fill="#d7d8d9" d="M 751.5,522.5 C 767.861,531.528 780.528,544.194 789.5,560.5C 804.821,597.157 806.488,634.49 794.5,672.5C 779.888,711.775 754.221,741.442 717.5,761.5C 724.934,755.911 732.267,750.078 739.5,744C 785.635,701.426 802.635,649.259 790.5,587.5C 785.197,560.939 772.197,539.273 751.5,522.5 Z"/></g>
<g><path style="opacity:1" fill="#f1d1b2" d="M 570.5,531.5 C 570.833,531.5 571.167,531.5 571.5,531.5C 579.175,530.936 586.175,532.603 592.5,536.5C 569.633,553.362 550.633,573.696 535.5,597.5C 535.994,586.534 537.994,575.867 541.5,565.5C 543.674,562.485 545.341,559.151 546.5,555.5C 552.833,545.833 560.833,537.833 570.5,531.5 Z"/></g>
<g><path style="opacity:1" fill="#f0b272" d="M 570.5,531.5 C 560.833,537.833 552.833,545.833 546.5,555.5C 543.05,548.942 544.05,543.109 549.5,538C 555.89,533.926 562.89,531.759 570.5,531.5 Z"/></g>
<g><path style="opacity:1" fill="#efaf70" d="M 420.5,551.5 C 420.842,550.662 421.508,550.328 422.5,550.5C 429.21,546.814 436.21,543.647 443.5,541C 461.4,538.925 473.9,546.092 481,562.5C 481.956,566.572 481.456,570.405 479.5,574C 472.833,576.333 466.167,578.667 459.5,581C 455.542,583.234 452.042,586.067 449,589.5C 444.564,597.467 440.897,605.8 438,614.5C 433.502,619.58 427.836,621.913 421,621.5C 409.368,620.848 399.368,616.515 391,608.5C 383.357,597.594 383.69,586.927 392,576.5C 400.457,566.87 409.957,558.536 420.5,551.5 Z"/></g>
<g><path style="opacity:1" fill="#b31725" d="M 425.5,565.5 C 432.669,564.513 436.169,567.513 436,574.5C 434.247,577.005 432.747,579.671 431.5,582.5C 434.208,584.611 437.041,586.611 440,588.5C 442.477,592.78 441.644,596.28 437.5,599C 433.628,599.891 429.962,599.391 426.5,597.5C 425.01,601.353 423.844,605.353 423,609.5C 418.615,613.756 414.615,613.423 411,608.5C 410.149,602.547 410.649,596.714 412.5,591C 410.273,589.294 408.106,587.46 406,585.5C 402.668,578.833 404.668,574.833 412,573.5C 414.076,574.612 416.243,575.112 418.5,575C 420.476,571.537 422.81,568.37 425.5,565.5 Z"/></g>
<g><path style="opacity:1" fill="#f0b171" d="M 541.5,565.5 C 537.994,575.867 535.994,586.534 535.5,597.5C 534.012,602.467 532.012,607.134 529.5,611.5C 522.782,606.948 519.282,600.614 519,592.5C 521.914,589.517 524.914,586.517 528,583.5C 529.837,578.642 531.17,573.642 532,568.5C 534.546,565.814 537.713,564.814 541.5,565.5 Z"/></g>
<g><path style="opacity:1" fill="#fe914d" d="M 649.5,567.5 C 692.441,566.305 721.607,585.638 737,625.5C 747.528,671.264 732.361,705.431 691.5,728C 646.976,743.05 612.143,730.883 587,691.5C 568.571,650.731 575.738,615.231 608.5,585C 620.716,575.546 634.383,569.713 649.5,567.5 Z"/></g>
<g><path style="opacity:1" fill="#ffbc58" d="M 679.5,587.5 C 712.016,587.181 727.849,603.181 727,635.5C 719.131,658.679 702.964,668.846 678.5,666C 655.291,658.097 645.457,641.93 649,617.5C 653.753,601.913 663.92,591.913 679.5,587.5 Z"/></g>
<g><path style="opacity:1" fill="#ebc288" d="M 350.5,611.5 C 340.575,618.807 330.242,625.64 319.5,632C 312.039,637.722 308.873,645.222 310,654.5C 313.541,673.413 316.541,692.413 319,711.5C 323.813,724.324 332.98,729.491 346.5,727C 366.188,717.822 385.855,708.655 405.5,699.5C 375.929,717.878 347.429,737.878 320,759.5C 311.896,742.857 305.562,725.524 301,707.5C 295.698,685.081 292.864,662.414 292.5,639.5C 311.611,629.61 330.944,620.277 350.5,611.5 Z"/></g>
<g><path style="opacity:1" fill="#99a7eb" d="M 794.5,672.5 C 805.666,724.695 786.333,759.528 736.5,777C 715.867,782.661 694.867,784.827 673.5,783.5C 688.693,777.237 703.36,769.903 717.5,761.5C 754.221,741.442 779.888,711.775 794.5,672.5 Z"/></g>
</svg>
